<?xml version="1.0" encoding="UTF-8" standalone="no"?>
<svg
   class="w-36 h-6 lg:w-56 lg:h-8"
   viewBox="0 30 350 72.29448"
   aria-label="Focal"
   width="300"
   height="61.961929"
   version="1.1"
   id="svg2"
   sodipodi:docname="Focal logo.svg"
   inkscape:version="1.4 (86a8ad7, 2024-10-11)"
   xmlns:inkscape="http://www.inkscape.org/namespaces/inkscape"
   xmlns:sodipodi="http://sodipodi.sourceforge.net/DTD/sodipodi-0.dtd"
   xmlns="http://www.w3.org/2000/svg"
   xmlns:svg="http://www.w3.org/2000/svg">
  <defs
     id="defs2" />
  <sodipodi:namedview
     id="namedview2"
     pagecolor="#ffffff"
     bordercolor="#000000"
     borderopacity="0.25"
     inkscape:showpageshadow="2"
     inkscape:pageopacity="0.0"
     inkscape:pagecheckerboard="0"
     inkscape:deskcolor="#d1d1d1"
     inkscape:zoom="5.91"
     inkscape:cx="235.36379"
     inkscape:cy="48.815567"
     inkscape:window-width="1920"
     inkscape:window-height="1001"
     inkscape:window-x="-9"
     inkscape:window-y="-9"
     inkscape:window-maximized="1"
     inkscape:current-layer="svg2" />
  <path
     d="M 124.39923,50.210075 H 93.42012 v 9.503552 h 20.6116 V 69.834294 H 93.42012 V 92.420659 H 83.5463 V 40.336254 h 40.85293 z m 46.28353,15.921536 c 0,-4.566642 -1.72792,-8.516171 -5.06034,-11.725162 -3.33241,-3.208992 -7.52878,-4.936911 -12.21885,-4.936911 -4.81349,0 -8.88644,1.604496 -12.21885,4.813488 -3.33242,3.208992 -5.06033,7.15852 -5.06033,11.848585 0,4.690065 1.72791,8.763016 5.06033,12.09543 3.33241,3.332415 7.52879,5.060334 12.21885,5.060334 4.81349,0 8.88644,-1.727919 12.21885,-5.060334 3.33242,-3.332414 5.06034,-7.405365 5.06034,-12.09543 z m 9.87382,0 c 0,7.405365 -2.7153,13.823349 -8.02248,19.130528 -5.30718,5.307178 -11.72516,8.022479 -19.13053,8.022479 -7.40536,0 -13.82335,-2.715301 -19.13053,-8.022479 -5.30717,-5.307179 -8.02247,-11.725163 -8.02247,-19.007105 0,-7.528789 2.59188,-13.946772 7.89905,-19.130528 5.18376,-5.183756 11.72516,-7.775634 19.37737,-7.775634 7.28195,0 13.57651,2.591878 19.00711,7.899057 5.30718,5.430601 8.02248,11.725162 8.02248,18.883682 z m 56.15735,15.427845 c -5.80087,7.899057 -13.20623,11.848585 -22.33951,11.848585 -7.40537,0 -13.69993,-2.591878 -19.00711,-7.899057 -5.18376,-5.307178 -7.89906,-11.601739 -7.89906,-19.007105 0,-7.528788 2.59188,-13.946772 7.89906,-19.130528 5.30718,-5.183756 11.72516,-7.775634 19.25395,-7.775634 9.25671,0.246846 16.41523,4.072952 21.72241,11.478317 l -8.02248,5.554024 c -3.82611,-4.690065 -8.51617,-7.035097 -14.0702,-7.035097 -4.69006,0 -8.76301,1.604496 -11.97201,4.93691 -3.33241,3.208992 -4.93691,7.281943 -4.93691,11.848585 0,4.813488 1.6045,8.763016 4.93691,12.095431 3.33242,3.332414 7.28195,4.93691 11.97201,4.93691 5.18376,0 9.87382,-2.345032 14.0702,-7.15852 z m 40.97636,-10.490935 -8.51617,-18.143145 -8.63959,18.143145 z m 20.98187,21.352138 h -10.98463 l -5.30717,-11.354894 h -26.5359 l -5.4306,11.354894 h -10.98462 l 24.68455,-52.084405 h 9.87382 z m 47.51776,0 H 305.33699 V 40.336254 h 9.87382 v 42.210584 h 30.97911 z M 4.8025785,44.038937 -0.01090854,33.548002 C 18.132237,27.747133 51.703228,29.228206 66.267113,36.756994 l -4.196374,9.38013 c -9.009861,-1.234228 -24.314283,4.566642 -29.251193,8.022479 5.677447,0.987382 15.921535,4.196374 21.228714,6.417984 l -4.443219,9.380129 c -6.541406,1.727919 -14.563886,4.319797 -19.500796,12.712545 2.22161,4.072951 6.047715,7.035097 11.601739,9.009861 L 37.01592,102.29448 C 29.857399,98.468374 24.303375,92.297236 23.686261,85.262139 23.315993,81.929724 24.426798,77.980196 25.661026,75.511741 27.882635,71.562212 33.560082,66.625302 37.879879,65.020806 31.955586,63.169465 20.724115,61.1947 14.6764,60.947855 l 0.863959,-9.503553 C 20.477269,47.988465 31.091627,43.545246 37.386188,41.94075 29.116863,41.200213 12.948481,42.064173 4.8025785,44.038937 Z M 339.89536,45.643433 c 0,2.591878 2.09819,4.813487 4.81349,4.813487 2.59188,0 4.81349,-2.098187 4.81349,-4.813487 0,-2.591878 -2.09819,-4.813488 -4.81349,-4.813488 -2.7153,0 -4.81349,2.22161 -4.81349,4.813488 m -0.49369,0 c 0,-2.838724 2.34503,-5.307179 5.30718,-5.307179 2.96215,0 5.30718,2.345032 5.30718,5.307179 0,2.962146 -2.34503,5.307178 -5.30718,5.307178 -2.96215,0 -5.30718,-2.345032 -5.30718,-5.307178"
     id="path1"
     style="stroke-width:1" />
  <path
     d="m 343.84489,45.396587 h 0.37027 c 0.98738,0 1.48107,-0.370268 1.48107,-1.110805 0,-0.740536 -0.49369,-0.987382 -1.48107,-0.987382 h -0.37027 z m 2.22161,3.57926 -1.97476,-2.7153 h -0.24685 v 2.7153 h -1.1108 v -6.664829 h 1.23422 c 0.98739,0 1.6045,0.123423 1.97477,0.493691 0.49369,0.370269 0.74053,0.86396 0.74053,1.481073 0,0.493691 -0.12342,0.86396 -0.37026,1.234228 -0.24685,0.370268 -0.74054,0.617114 -1.11081,0.617114 l 2.22161,2.838723 z"
     id="path2"
     style="stroke-width:1" />
</svg>
